<svg width="1013" height="1014" viewBox="0 0 1013 1014" fill="none" xmlns="http://www.w3.org/2000/svg">
<circle cx="506.5" cy="507.5" r="505" stroke="black" stroke-width="3"/>
<mask id="mask0_154_2907" style="mask-type:alpha" maskUnits="userSpaceOnUse" x="0" y="0" width="1013" height="1013">
<circle cx="506.5" cy="506.5" r="506.5" fill="#D9D9D9"/>
</mask>
<g mask="url(#mask0_154_2907)">
<path d="M556.576 568.526H539.576V587.526H497.576V600.026H560.076L549.576 584.026L556.576 568.526Z" fill="black" stroke="black" stroke-width="3"/>
<path d="M312.076 568.526H329.076V587.526H371.076V600.026H308.576L319.076 584.026L312.076 568.526Z" fill="black" stroke="black" stroke-width="3"/>
<path d="M538.576 552.026H328.576V587.026H538.576V552.026Z" fill="black" stroke="black" stroke-width="3"/>
<path d="M467.576 901.026V867.526H561.576V901.026H467.576Z" fill="black" stroke="black" stroke-width="3"/>
<path d="M827.941 108.233H812.615" stroke="black" stroke-width="3"/>
<path d="M845.624 121.201H793.753" stroke="black" stroke-width="3"/>
<path d="M862.129 134.758H777.838" stroke="black" stroke-width="3"/>
<path d="M878.633 151.262H761.923" stroke="black" stroke-width="3"/>
<path d="M897.496 165.409H746.008" stroke="black" stroke-width="3"/>
<path d="M916.947 180.734H728.325" stroke="black" stroke-width="3"/>
<path d="M932.862 195.471H707.694" stroke="black" stroke-width="3"/>
<path d="M949.956 210.207H694.137" stroke="black" stroke-width="3"/>
<path d="M968.818 224.354H711.231" stroke="black" stroke-width="3"/>
<path d="M975.892 237.911H729.503" stroke="black" stroke-width="3"/>
<path d="M975.892 252.648H746.008" stroke="black" stroke-width="3"/>
<path d="M975.892 282.12H781.375" stroke="black" stroke-width="3"/>
<path d="M789.627 507.287H952.903V517.308H797.29" stroke="black" stroke-width="3"/>
<path d="M230.833 458.953V403.545H286.241V458.953H230.833Z" stroke="black" stroke-width="3"/>
<path d="M605.131 161.873H440.086L274.452 298.624H433.602L605.131 161.873Z" stroke="black" stroke-width="3"/>
<path d="M103.512 298.624V221.407L272.094 94.6758L387.036 190.166L260.894 298.624H103.512Z" stroke="black" stroke-width="3"/>
<path d="M831.478 94.0864H990.628L1130.92 211.976" stroke="black" stroke-width="3"/>
<path d="M1010.08 306.287H985.323V224.943H1149.78V451.29L1010.08 306.287Z" stroke="black" stroke-width="3"/>
<path d="M995.344 491.962L820.278 316.307H1004.19L1177.48 491.962H995.344Z" stroke="black" stroke-width="3"/>
<path d="M636.371 1014.74V580.968L433.012 374.662L236.727 575.663V960.178M452.464 370.536H641.676L829.12 569.179H645.213L452.464 370.536Z" stroke="black" stroke-width="3"/>
<path d="M223.17 568.59V1086.12H78.1663V494.32L262.073 311.592L365.816 423.586L283.293 507.287H109.407V515.54H276.809L223.17 568.59Z" stroke="black" stroke-width="3"/>
<path d="M-98.6675 485.478L71.0928 313.949H231.422" stroke="black" stroke-width="3"/>
<path d="M988.27 501.393L805.542 318.665L705.926 421.228L848.572 572.126V1097.91H988.27V501.393Z" stroke="black" stroke-width="3"/>
<path d="M1194.58 1093.2V495.498L1160.39 463.668V216.101L994.164 79.9392H818.51L682.348 201.365L625.172 151.262H432.423L396.467 183.092L273.273 80.5287H87.0079L-78.0368 219.048V444.806L-123.424 487.246V1093.2" stroke="black" stroke-width="3"/>
<path d="M241.443 548.549H183.677V611.62H222.58" stroke="black" stroke-width="3"/>
<path d="M234.959 556.211H191.34V603.957H222.58" stroke="black" stroke-width="3"/>
<path d="M174.835 611.62V548.549H105.281V611.62H174.835Z" stroke="black" stroke-width="3"/>
<path d="M-67.4268 227.301V430.659L66.9668 298.034H92.313V227.301H-67.4268Z" stroke="black" stroke-width="3"/>
<circle cx="262.663" cy="205.491" r="30.3301" stroke="black" stroke-width="3"/>
<circle cx="262.663" cy="205.492" r="39.7612" stroke="black" stroke-width="3"/>
<path d="M427.708 309.234H272.683L374.068 414.155L427.708 364.052V309.234Z" stroke="black" stroke-width="3"/>
<path d="M446.57 313.36L618.688 167.767L789.038 313.36" stroke="black" stroke-width="3"/>
<path d="M1001.24 506.698H1186.32" stroke="black" stroke-width="3"/>
<path d="M830.299 550.318H870.381V609.852H849.751" stroke="black" stroke-width="3"/>
<path d="M882.759 609.852V550.318H947.009V609.852H882.759Z" stroke="black" stroke-width="3"/>
<path d="M529.576 340.526V280.526H585.576V340.526H529.576Z" stroke="black" stroke-width="3"/>
<path d="M594.576 340.526V280.526H651.576V340.526H594.576Z" stroke="black" stroke-width="3"/>
<path d="M660.576 340.526V280.526H716.576V340.526H660.576Z" stroke="black" stroke-width="3"/>
<path d="M648.16 583.326H837.372" stroke="black" stroke-width="3"/>
<path d="M-111.046 500.214H65.788" stroke="black" stroke-width="3"/>
<path d="M-111.046 516.719H65.788" stroke="black" stroke-width="3"/>
<path d="M-111.046 532.044H65.788" stroke="black" stroke-width="3"/>
<path d="M-111.046 548.549H65.788" stroke="black" stroke-width="3"/>
<path d="M-111.046 565.053H65.788" stroke="black" stroke-width="3"/>
<path d="M-111.046 580.379H65.788" stroke="black" stroke-width="3"/>
<path d="M-111.046 596.883H65.788" stroke="black" stroke-width="3"/>
<path d="M-111.046 612.209H65.788" stroke="black" stroke-width="3"/>
<path d="M-111.046 628.714H65.788" stroke="black" stroke-width="3"/>
<path d="M-111.046 645.218H65.788" stroke="black" stroke-width="3"/>
<path d="M-111.046 660.543H65.788" stroke="black" stroke-width="3"/>
<path d="M-111.013 677.048H65.821" stroke="black" stroke-width="3"/>
<path d="M-111.013 693.738H65.821" stroke="black" stroke-width="3"/>
<path d="M-111.013 710.429H65.821" stroke="black" stroke-width="3"/>
<path d="M-111.013 727.119H65.821" stroke="black" stroke-width="3"/>
<path d="M-111.013 743.81H65.821" stroke="black" stroke-width="3"/>
<path d="M-111.013 760.5H65.821" stroke="black" stroke-width="3"/>
<path d="M-111.013 777.19H65.821" stroke="black" stroke-width="3"/>
<path d="M-111.013 793.88H65.821" stroke="black" stroke-width="3"/>
<path d="M-111.013 810.571H65.821" stroke="black" stroke-width="3"/>
<path d="M648.16 596.883H837.372" stroke="black" stroke-width="3"/>
<path d="M648.16 610.44H837.372" stroke="black" stroke-width="3"/>
<path d="M646.476 694.683L838.256 695.861" stroke="black" stroke-width="3"/>
<path d="M647.76 753.474L839.542 754.652" stroke="black" stroke-width="3"/>
<path d="M647.76 812.264L839.542 813.443" stroke="black" stroke-width="3"/>
<path d="M647.76 871.055L839.542 872.234" stroke="black" stroke-width="3"/>
<path d="M647.76 929.846L839.542 931.025" stroke="black" stroke-width="3"/>
<path d="M647.76 988.637L839.542 989.815" stroke="black" stroke-width="3"/>
<path d="M647.76 724.107L839.542 725.285" stroke="black" stroke-width="3"/>
<path d="M647.76 782.898L839.542 784.076" stroke="black" stroke-width="3"/>
<path d="M647.76 841.688L839.542 842.867" stroke="black" stroke-width="3"/>
<path d="M647.76 900.479L839.542 901.658" stroke="black" stroke-width="3"/>
<path d="M647.76 959.27L839.542 960.449" stroke="black" stroke-width="3"/>
<path d="M647.76 709.984H839.546" stroke="black" stroke-width="3"/>
<path d="M647.76 768.775H839.546" stroke="black" stroke-width="3"/>
<path d="M647.76 827.565H839.546" stroke="black" stroke-width="3"/>
<path d="M647.76 886.357H839.546" stroke="black" stroke-width="3"/>
<path d="M647.76 945.147H839.546" stroke="black" stroke-width="3"/>
<path d="M647.76 1003.94H837.774" stroke="black" stroke-width="3"/>
<path d="M647.76 739.408H839.546" stroke="black" stroke-width="3"/>
<path d="M647.76 798.199H839.546" stroke="black" stroke-width="3"/>
<path d="M647.76 856.99H839.546" stroke="black" stroke-width="3"/>
<path d="M647.76 915.78H839.546" stroke="black" stroke-width="3"/>
<path d="M647.76 974.571L698.576 974.524" stroke="black" stroke-width="3"/>
<path d="M648.16 623.998H705.926" stroke="black" stroke-width="3"/>
<path d="M780.196 625.177H837.961" stroke="black" stroke-width="3"/>
<path d="M648.16 638.145H705.926" stroke="black" stroke-width="3"/>
<path d="M780.196 639.323H837.961" stroke="black" stroke-width="3"/>
<path d="M648.16 651.113H705.926" stroke="black" stroke-width="3"/>
<path d="M646.476 679.008H704.241" stroke="black" stroke-width="3"/>
<path d="M780 652.291H837.765" stroke="black" stroke-width="3"/>
<path d="M780 680.56H837.765" stroke="black" stroke-width="3"/>
<path d="M648.16 665.259H705.926" stroke="black" stroke-width="3"/>
<path d="M780 666.438H837.765" stroke="black" stroke-width="3"/>
<circle cx="806.721" cy="425.354" r="26.2039" stroke="black" stroke-width="3"/>
<circle cx="806.721" cy="425.355" r="35.6351" stroke="black" stroke-width="3"/>
<path d="M-19.8574 7.43777C-10.4263 -7.10188 22.8184 -27.4574 80.3483 7.43777C152.261 51.0567 173.481 25.1211 168.765 7.43777C164.05 -10.2455 206.49 -27.9289 240.677 -32.6445C274.865 -37.36 285.475 -53.8645 272.508 -68.0112C259.54 -82.1579 241.856 -99.8412 250.109 -109.272C258.361 -118.703 268.971 -124.598 259.54 -136.387C250.109 -148.176 153.44 -139.924 136.935 -157.607C120.431 -175.29 115.715 -183.542 98.0317 -182.364C80.3483 -181.185 46.1605 -178.827 26.1193 -163.501C10.0864 -151.241 -11.2122 -148.962 -19.8574 -149.355" stroke="black" stroke-width="3"/>
<path d="M1070.16 -111.225C1054.44 -120.263 1017.81 -134.331 997.065 -118.299C971.129 -98.2574 953.446 -82.9316 928.689 -81.7527C903.932 -80.5738 888.607 -61.7116 908.648 -53.4593C928.689 -45.2071 945.193 -54.6382 936.941 -36.9548C928.689 -19.2715 909.827 -15.7348 928.689 -2.76701C947.551 10.2008 1007.67 -7.48257 1007.67 7.84301C1007.67 23.1686 994.707 23.1686 1007.67 33.7786C1018.05 42.2666 1096.76 26.5166 1113.26 22.9799" stroke="black" stroke-width="3"/>
<path d="M714.768 677.048V621.64H773.123V677.048H714.768Z" stroke="black" stroke-width="3"/>
<path d="M797.879 296.855H975.892" stroke="black" stroke-width="3"/>
<path d="M975.302 266.794H763.691" stroke="black" stroke-width="3"/>
<path d="M256.179 92.9072H91.134L-53.8696 214.333H95.8495L256.179 92.9072Z" stroke="black" stroke-width="3"/>
<rect x="275.076" y="715.409" width="331.303" height="136.293" rx="4.92891" fill="black" stroke="black" stroke-width="3"/>
<path d="M421.441 912.134V872.489H297.149V912.134H359.295H421.441Z" fill="black"/>
<path d="M427.87 853.202V917.491H284.291V936.778H427.87V1010.03L452.514 1013.92V853.202M421.441 872.489V912.134H359.295H297.149V872.489H421.441Z" stroke="black" stroke-width="3" stroke-linecap="round"/>
<path d="M329.363 900.775H305.657V881.875H309.545V897.292H315.566V881.875H319.427V897.292H325.475V881.875H329.363V900.775ZM337.441 900.775H333.553V881.875H341.815C343.849 881.875 345.451 882.406 346.621 883.468C347.809 884.512 348.403 885.88 348.403 887.572C348.403 889.282 347.809 890.659 346.621 891.703C345.451 892.765 343.849 893.296 341.815 893.296H337.441V900.775ZM337.441 885.277V889.975H341.545C342.481 889.975 343.21 889.777 343.732 889.381C344.254 888.967 344.515 888.382 344.515 887.626C344.515 886.87 344.254 886.294 343.732 885.898C343.21 885.484 342.481 885.277 341.545 885.277H337.441ZM354.618 900.775H351.351V881.875H355.239V894.187L364.392 881.875H367.74V900.775H363.879V888.382L354.618 900.775ZM384.31 901.504H380.395V899.425C377.479 899.317 375.229 898.462 373.645 896.86C372.061 895.258 371.269 893.359 371.269 891.163C371.269 888.949 372.061 887.05 373.645 885.466C375.247 883.864 377.497 883.009 380.395 882.901V881.173H384.31V882.901C387.208 883.009 389.458 883.864 391.06 885.466C392.644 887.05 393.436 888.949 393.436 891.163C393.436 893.359 392.644 895.258 391.06 896.86C389.476 898.462 387.226 899.317 384.31 899.425V901.504ZM380.395 895.915V886.411C378.775 886.429 377.515 886.87 376.615 887.734C375.715 888.58 375.265 889.723 375.265 891.163C375.265 892.585 375.715 893.728 376.615 894.592C377.515 895.438 378.775 895.879 380.395 895.915ZM384.31 886.411V895.915C385.93 895.879 387.19 895.438 388.09 894.592C388.99 893.728 389.44 892.585 389.44 891.163C389.44 889.723 388.99 888.58 388.09 887.734C387.19 886.87 385.93 886.429 384.31 886.411ZM394.273 885.358V881.875H410.122V885.358H404.128V900.775H400.24V885.358H394.273Z" fill="white"/>
<path d="M329.363 900.775V903.775H332.363V900.775H329.363ZM305.657 900.775H302.657V903.775H305.657V900.775ZM305.657 881.875V878.875H302.657V881.875H305.657ZM309.545 881.875H312.545V878.875H309.545V881.875ZM309.545 897.292H306.545V900.292H309.545V897.292ZM315.566 897.292V900.292H318.566V897.292H315.566ZM315.566 881.875V878.875H312.566V881.875H315.566ZM319.427 881.875H322.427V878.875H319.427V881.875ZM319.427 897.292H316.427V900.292H319.427V897.292ZM325.475 897.292V900.292H328.475V897.292H325.475ZM325.475 881.875V878.875H322.475V881.875H325.475ZM329.363 881.875H332.363V878.875H329.363V881.875ZM329.363 897.775H305.657V903.775H329.363V897.775ZM308.657 900.775V881.875H302.657V900.775H308.657ZM305.657 884.875H309.545V878.875H305.657V884.875ZM306.545 881.875V897.292H312.545V881.875H306.545ZM309.545 900.292H315.566V894.292H309.545V900.292ZM318.566 897.292V881.875H312.566V897.292H318.566ZM315.566 884.875H319.427V878.875H315.566V884.875ZM316.427 881.875V897.292H322.427V881.875H316.427ZM319.427 900.292H325.475V894.292H319.427V900.292ZM328.475 897.292V881.875H322.475V897.292H328.475ZM325.475 884.875H329.363V878.875H325.475V884.875ZM326.363 881.875V900.775H332.363V881.875H326.363ZM337.441 900.775V903.775H340.441V900.775H337.441ZM333.553 900.775H330.553V903.775H333.553V900.775ZM333.553 881.875V878.875H330.553V881.875H333.553ZM346.621 883.468L344.605 885.69L344.623 885.706L344.641 885.722L346.621 883.468ZM346.621 891.703L344.641 889.45L344.623 889.466L344.605 889.482L346.621 891.703ZM337.441 893.296V890.296H334.441V893.296H337.441ZM337.441 885.277V882.277H334.441V885.277H337.441ZM337.441 889.975H334.441V892.975H337.441V889.975ZM343.732 889.381L345.545 891.771L345.571 891.752L345.596 891.732L343.732 889.381ZM343.732 885.898L341.868 888.249L341.893 888.269L341.919 888.288L343.732 885.898ZM337.441 897.775H333.553V903.775H337.441V897.775ZM336.553 900.775V881.875H330.553V900.775H336.553ZM333.553 884.875H341.815V878.875H333.553V884.875ZM341.815 884.875C343.324 884.875 344.131 885.26 344.605 885.69L348.637 881.247C346.771 879.553 344.374 878.875 341.815 878.875V884.875ZM344.641 885.722C345.131 886.153 345.403 886.675 345.403 887.572H351.403C351.403 885.086 350.487 882.872 348.601 881.215L344.641 885.722ZM345.403 887.572C345.403 888.499 345.124 889.026 344.641 889.45L348.601 893.957C350.495 892.293 351.403 890.066 351.403 887.572H345.403ZM344.605 889.482C344.131 889.912 343.324 890.296 341.815 890.296V896.296C344.374 896.296 346.771 895.619 348.637 893.925L344.605 889.482ZM341.815 890.296H337.441V896.296H341.815V890.296ZM334.441 893.296V900.775H340.441V893.296H334.441ZM334.441 885.277V889.975H340.441V885.277H334.441ZM337.441 892.975H341.545V886.975H337.441V892.975ZM341.545 892.975C342.864 892.975 344.32 892.701 345.545 891.771L341.919 886.991C342.008 886.924 342.057 886.918 342.008 886.932C341.952 886.947 341.808 886.975 341.545 886.975V892.975ZM345.596 891.732C346.939 890.667 347.515 889.158 347.515 887.626H341.515C341.515 887.658 341.51 887.565 341.58 887.41C341.654 887.243 341.766 887.112 341.868 887.031L345.596 891.732ZM347.515 887.626C347.515 886.096 346.937 884.564 345.545 883.508L341.919 888.288C341.797 888.196 341.67 888.049 341.587 887.866C341.51 887.696 341.515 887.593 341.515 887.626H347.515ZM345.596 883.548C344.366 882.572 342.889 882.277 341.545 882.277V888.277C341.798 888.277 341.93 888.306 341.974 888.319C342.011 888.329 341.956 888.319 341.868 888.249L345.596 883.548ZM341.545 882.277H337.441V888.277H341.545V882.277ZM354.618 900.775V903.775H356.121L357.021 902.571L354.618 900.775ZM351.351 900.775H348.351V903.775H351.351V900.775ZM351.351 881.875V878.875H348.351V881.875H351.351ZM355.239 881.875H358.239V878.875H355.239V881.875ZM355.239 894.187H352.239V903.251L357.647 895.977L355.239 894.187ZM364.392 881.875V878.875H362.884L361.984 880.086L364.392 881.875ZM367.74 881.875H370.74V878.875H367.74V881.875ZM367.74 900.775V903.775H370.74V900.775H367.74ZM363.879 900.775H360.879V903.775H363.879V900.775ZM363.879 888.382H366.879V879.356L361.476 886.587L363.879 888.382ZM354.618 897.775H351.351V903.775H354.618V897.775ZM354.351 900.775V881.875H348.351V900.775H354.351ZM351.351 884.875H355.239V878.875H351.351V884.875ZM352.239 881.875V894.187H358.239V881.875H352.239ZM357.647 895.977L366.8 883.665L361.984 880.086L352.831 892.398L357.647 895.977ZM364.392 884.875H367.74V878.875H364.392V884.875ZM364.74 881.875V900.775H370.74V881.875H364.74ZM367.74 897.775H363.879V903.775H367.74V897.775ZM366.879 900.775V888.382H360.879V900.775H366.879ZM361.476 886.587L352.215 898.98L357.021 902.571L366.282 890.178L361.476 886.587ZM384.31 901.504V904.504H387.31V901.504H384.31ZM380.395 901.504H377.395V904.504H380.395V901.504ZM380.395 899.425H383.395V896.534L380.506 896.427L380.395 899.425ZM373.645 896.86L371.512 898.97L371.512 898.97L373.645 896.86ZM373.645 885.466L371.524 883.345L371.524 883.345L373.645 885.466ZM380.395 882.901L380.507 885.899L383.395 885.792V882.901H380.395ZM380.395 881.173V878.173H377.395V881.173H380.395ZM384.31 881.173H387.31V878.173H384.31V881.173ZM384.31 882.901H381.31V885.792L384.199 885.899L384.31 882.901ZM391.06 896.86L388.927 894.751L388.927 894.751L391.06 896.86ZM384.31 899.425L384.199 896.427L381.31 896.534V899.425H384.31ZM380.395 895.915L380.329 898.915L383.395 898.983V895.915H380.395ZM380.395 886.411H383.395V883.378L380.362 883.412L380.395 886.411ZM376.615 887.734L378.67 889.92L378.682 889.909L378.693 889.899L376.615 887.734ZM376.615 894.592L374.538 896.757L374.549 896.767L374.561 896.778L376.615 894.592ZM384.31 886.411L384.344 883.412L381.31 883.378V886.411H384.31ZM384.31 895.915H381.31V898.983L384.377 898.915L384.31 895.915ZM388.09 894.592L390.145 896.778L390.157 896.767L390.168 896.757L388.09 894.592ZM388.09 887.734L386.013 889.899L386.024 889.909L386.036 889.92L388.09 887.734ZM384.31 898.504H380.395V904.504H384.31V898.504ZM383.395 901.504V899.425H377.395V901.504H383.395ZM380.506 896.427C378.12 896.339 376.682 895.665 375.779 894.751L371.512 898.97C373.777 901.26 376.839 902.296 380.284 902.423L380.506 896.427ZM375.779 894.751C374.734 893.694 374.269 892.547 374.269 891.163H368.269C368.269 894.172 369.389 896.822 371.512 898.97L375.779 894.751ZM374.269 891.163C374.269 889.756 374.738 888.617 375.767 887.588L371.524 883.345C369.385 885.484 368.269 888.143 368.269 891.163H374.269ZM375.767 887.588C376.696 886.658 378.146 885.987 380.507 885.899L380.284 879.903C376.849 880.031 373.799 881.07 371.524 883.345L375.767 887.588ZM383.395 882.901V881.173H377.395V882.901H383.395ZM380.395 884.173H384.31V878.173H380.395V884.173ZM381.31 881.173V882.901H387.31V881.173H381.31ZM384.199 885.899C386.56 885.987 388.01 886.658 388.939 887.588L393.182 883.345C390.907 881.07 387.857 880.031 384.422 879.903L384.199 885.899ZM388.939 887.588C389.968 888.617 390.436 889.756 390.436 891.163H396.436C396.436 888.143 395.321 885.484 393.182 883.345L388.939 887.588ZM390.436 891.163C390.436 892.547 389.972 893.694 388.927 894.751L393.194 898.97C395.317 896.822 396.436 894.172 396.436 891.163H390.436ZM388.927 894.751C388.024 895.665 386.586 896.339 384.199 896.427L384.421 902.423C387.867 902.296 390.929 901.26 393.194 898.97L388.927 894.751ZM381.31 899.425V901.504H387.31V899.425H381.31ZM383.395 895.915V886.411H377.395V895.915H383.395ZM380.362 883.412C378.214 883.435 376.137 884.035 374.538 885.57L378.693 889.899C378.894 889.706 379.336 889.423 380.429 889.411L380.362 883.412ZM374.561 885.549C372.956 887.056 372.265 889.045 372.265 891.163H378.265C378.265 890.402 378.474 890.104 378.67 889.92L374.561 885.549ZM372.265 891.163C372.265 893.277 372.964 895.246 374.538 896.757L378.693 892.428C378.467 892.211 378.265 891.893 378.265 891.163H372.265ZM374.561 896.778C376.151 898.273 378.204 898.867 380.329 898.915L380.462 892.916C379.346 892.891 378.88 892.604 378.67 892.407L374.561 896.778ZM381.31 886.411V895.915H387.31V886.411H381.31ZM384.377 898.915C386.501 898.867 388.555 898.273 390.145 896.778L386.036 892.407C385.826 892.604 385.359 892.891 384.244 892.916L384.377 898.915ZM390.168 896.757C391.742 895.246 392.44 893.277 392.44 891.163H386.44C386.44 891.893 386.239 892.211 386.013 892.428L390.168 896.757ZM392.44 891.163C392.44 889.045 391.749 887.056 390.145 885.549L386.036 889.92C386.231 890.104 386.44 890.402 386.44 891.163H392.44ZM390.168 885.57C388.569 884.035 386.491 883.435 384.344 883.412L384.277 889.411C385.369 889.423 385.812 889.706 386.013 889.899L390.168 885.57ZM394.273 885.358H391.273V888.358H394.273V885.358ZM394.273 881.875V878.875H391.273V881.875H394.273ZM410.122 881.875H413.122V878.875H410.122V881.875ZM410.122 885.358V888.358H413.122V885.358H410.122ZM404.128 885.358V882.358H401.128V885.358H404.128ZM404.128 900.775V903.775H407.128V900.775H404.128ZM400.24 900.775H397.24V903.775H400.24V900.775ZM400.24 885.358H403.24V882.358H400.24V885.358ZM397.273 885.358V881.875H391.273V885.358H397.273ZM394.273 884.875H410.122V878.875H394.273V884.875ZM407.122 881.875V885.358H413.122V881.875H407.122ZM410.122 882.358H404.128V888.358H410.122V882.358ZM401.128 885.358V900.775H407.128V885.358H401.128ZM404.128 897.775H400.24V903.775H404.128V897.775ZM403.24 900.775V885.358H397.24V900.775H403.24ZM400.24 882.358H394.273V888.358H400.24V882.358Z" fill="black"/>
<path d="M493.789 893.529H490.954V887.817H492.403C493.061 886.809 493.551 885.549 493.873 884.037C494.181 882.581 494.335 880.621 494.335 878.157V875.826H504.667V887.817H506.683V893.529H503.848V890.526H493.789V893.529ZM495.742 887.817H501.643V878.535H497.338C497.338 880.565 497.219 882.308 496.981 883.764C496.757 885.22 496.344 886.571 495.742 887.817ZM511.91 890.526H508.886V875.826H511.91V881.328H518.546V875.826H521.549V890.526H518.546V884.079H511.91V890.526ZM527.026 890.526H523.54L528.139 884.247C527.173 883.953 526.417 883.449 525.871 882.735C525.339 882.007 525.073 881.153 525.073 880.173C525.073 878.885 525.528 877.842 526.438 877.044C527.334 876.232 528.566 875.826 530.134 875.826H536.938V890.526H533.914V884.583H531.352L527.026 890.526ZM530.302 882.042H533.914V878.472H530.302C529.616 878.472 529.077 878.633 528.685 878.955C528.307 879.263 528.118 879.697 528.118 880.257C528.118 880.831 528.307 881.272 528.685 881.58C529.077 881.888 529.616 882.042 530.302 882.042Z" fill="white"/>
<path d="M493.789 893.529V896.529H496.789V893.529H493.789ZM490.954 893.529H487.954V896.529H490.954V893.529ZM490.954 887.817V884.817H487.954V887.817H490.954ZM492.403 887.817V890.817H494.027L494.915 889.457L492.403 887.817ZM493.873 884.037L496.807 884.662L496.808 884.658L493.873 884.037ZM494.335 875.826V872.826H491.335V875.826H494.335ZM504.667 875.826H507.667V872.826H504.667V875.826ZM504.667 887.817H501.667V890.817H504.667V887.817ZM506.683 887.817H509.683V884.817H506.683V887.817ZM506.683 893.529V896.529H509.683V893.529H506.683ZM503.848 893.529H500.848V896.529H503.848V893.529ZM503.848 890.526H506.848V887.526H503.848V890.526ZM493.789 890.526V887.526H490.789V890.526H493.789ZM495.742 887.817L493.041 886.512L490.961 890.817H495.742V887.817ZM501.643 887.817V890.817H504.643V887.817H501.643ZM501.643 878.535H504.643V875.535H501.643V878.535ZM497.338 878.535V875.535H494.338V878.535H497.338ZM496.981 883.764L494.02 883.28L494.018 883.294L494.016 883.308L496.981 883.764ZM493.789 890.529H490.954V896.529H493.789V890.529ZM493.954 893.529V887.817H487.954V893.529H493.954ZM490.954 890.817H492.403V884.817H490.954V890.817ZM494.915 889.457C495.823 888.065 496.429 886.437 496.807 884.662L490.939 883.412C490.673 884.661 490.298 885.553 489.891 886.177L494.915 889.457ZM496.808 884.658C497.178 882.909 497.335 880.713 497.335 878.157H491.335C491.335 880.529 491.184 882.253 490.938 883.416L496.808 884.658ZM497.335 878.157V875.826H491.335V878.157H497.335ZM494.335 878.826H504.667V872.826H494.335V878.826ZM501.667 875.826V887.817H507.667V875.826H501.667ZM504.667 890.817H506.683V884.817H504.667V890.817ZM503.683 887.817V893.529H509.683V887.817H503.683ZM506.683 890.529H503.848V896.529H506.683V890.529ZM506.848 893.529V890.526H500.848V893.529H506.848ZM503.848 887.526H493.789V893.526H503.848V887.526ZM490.789 890.526V893.529H496.789V890.526H490.789ZM495.742 890.817H501.643V884.817H495.742V890.817ZM504.643 887.817V878.535H498.643V887.817H504.643ZM501.643 875.535H497.338V881.535H501.643V875.535ZM494.338 878.535C494.338 880.458 494.224 882.031 494.02 883.28L499.942 884.248C500.213 882.585 500.338 880.671 500.338 878.535H494.338ZM494.016 883.308C493.834 884.488 493.505 885.551 493.041 886.512L498.443 889.122C499.183 887.591 499.68 885.952 499.946 884.22L494.016 883.308ZM511.91 890.526V893.526H514.91V890.526H511.91ZM508.886 890.526H505.886V893.526H508.886V890.526ZM508.886 875.826V872.826H505.886V875.826H508.886ZM511.91 875.826H514.91V872.826H511.91V875.826ZM511.91 881.328H508.91V884.328H511.91V881.328ZM518.546 881.328V884.328H521.546V881.328H518.546ZM518.546 875.826V872.826H515.546V875.826H518.546ZM521.549 875.826H524.549V872.826H521.549V875.826ZM521.549 890.526V893.526H524.549V890.526H521.549ZM518.546 890.526H515.546V893.526H518.546V890.526ZM518.546 884.079H521.546V881.079H518.546V884.079ZM511.91 884.079V881.079H508.91V884.079H511.91ZM511.91 887.526H508.886V893.526H511.91V887.526ZM511.886 890.526V875.826H505.886V890.526H511.886ZM508.886 878.826H511.91V872.826H508.886V878.826ZM508.91 875.826V881.328H514.91V875.826H508.91ZM511.91 884.328H518.546V878.328H511.91V884.328ZM521.546 881.328V875.826H515.546V881.328H521.546ZM518.546 878.826H521.549V872.826H518.546V878.826ZM518.549 875.826V890.526H524.549V875.826H518.549ZM521.549 887.526H518.546V893.526H521.549V887.526ZM521.546 890.526V884.079H515.546V890.526H521.546ZM518.546 881.079H511.91V887.079H518.546V881.079ZM508.91 884.079V890.526H514.91V884.079H508.91ZM527.026 890.526V893.526H528.553L529.452 892.291L527.026 890.526ZM523.54 890.526L521.12 888.753L517.624 893.526H523.54V890.526ZM528.139 884.247L530.56 886.02L533.058 882.608L529.013 881.377L528.139 884.247ZM525.871 882.735L523.449 884.505L523.468 884.531L523.488 884.557L525.871 882.735ZM526.438 877.044L528.416 879.299L528.435 879.283L528.453 879.267L526.438 877.044ZM536.938 875.826H539.938V872.826H536.938V875.826ZM536.938 890.526V893.526H539.938V890.526H536.938ZM533.914 890.526H530.914V893.526H533.914V890.526ZM533.914 884.583H536.914V881.583H533.914V884.583ZM531.352 884.583V881.583H529.825L528.927 882.817L531.352 884.583ZM533.914 882.042V885.042H536.914V882.042H533.914ZM533.914 878.472H536.914V875.472H533.914V878.472ZM528.685 878.955L530.58 881.281L530.59 881.273L528.685 878.955ZM528.685 881.58L526.79 883.906L526.811 883.922L526.832 883.939L528.685 881.58ZM527.026 887.526H523.54V893.526H527.026V887.526ZM525.961 892.299L530.56 886.02L525.719 882.474L521.12 888.753L525.961 892.299ZM529.013 881.377C528.57 881.242 528.373 881.067 528.254 880.913L523.488 884.557C524.462 885.83 525.777 886.664 527.266 887.117L529.013 881.377ZM528.294 880.965C528.17 880.796 528.073 880.575 528.073 880.173H522.073C522.073 881.731 522.509 883.218 523.449 884.505L528.294 880.965ZM528.073 880.173C528.073 879.686 528.202 879.488 528.416 879.299L524.46 874.788C522.855 876.196 522.073 878.084 522.073 880.173H528.073ZM528.453 879.267C528.649 879.089 529.084 878.826 530.134 878.826V872.826C528.049 872.826 526.019 873.375 524.424 874.821L528.453 879.267ZM530.134 878.826H536.938V872.826H530.134V878.826ZM533.938 875.826V890.526H539.938V875.826H533.938ZM536.938 887.526H533.914V893.526H536.938V887.526ZM536.914 890.526V884.583H530.914V890.526H536.914ZM533.914 881.583H531.352V887.583H533.914V881.583ZM528.927 882.817L524.601 888.76L529.452 892.291L533.778 886.348L528.927 882.817ZM530.302 885.042H533.914V879.042H530.302V885.042ZM536.914 882.042V878.472H530.914V882.042H536.914ZM533.914 875.472H530.302V881.472H533.914V875.472ZM530.302 875.472C529.166 875.472 527.872 875.74 526.781 876.637L530.59 881.273C530.446 881.391 530.313 881.446 530.242 881.467C530.18 881.486 530.189 881.472 530.302 881.472V875.472ZM526.79 876.629C525.604 877.596 525.118 878.945 525.118 880.257H531.118C531.118 880.315 531.108 880.486 531.011 880.709C530.908 880.944 530.751 881.142 530.58 881.281L526.79 876.629ZM525.118 880.257C525.118 881.555 525.586 882.924 526.79 883.906L530.58 879.254C530.761 879.401 530.918 879.604 531.018 879.836C531.111 880.055 531.118 880.216 531.118 880.257H525.118ZM526.832 883.939C527.92 884.794 529.194 885.042 530.302 885.042V879.042C530.178 879.042 530.157 879.027 530.208 879.042C530.266 879.058 530.393 879.107 530.539 879.221L526.832 883.939Z" fill="black"/>
<path d="M292.863 830.701L285.362 822.129H321.793L326.079 828.558H360.366V818.915L379.653 830.701L360.366 843.559V834.987H326.079L321.793 840.345H284.291L292.863 830.701Z" fill="white" stroke="black" stroke-width="3" stroke-linecap="round"/>
<path d="M406.44 830.701L398.94 822.129H435.37L439.656 828.558H473.944V818.915L493.23 830.701L473.944 843.559V834.987H439.656L435.37 840.345H397.868L406.44 830.701Z" fill="white" stroke="black" stroke-width="3" stroke-linecap="round"/>
<path d="M513.588 830.701L506.088 822.129H542.519L546.804 828.558H581.092V818.915L600.379 830.701L581.092 843.559V834.987H546.804L542.519 840.345H505.017L513.588 830.701Z" fill="white" stroke="black" stroke-width="3" stroke-linecap="round"/>
<path d="M551.09 852.131V871.417M551.09 871.417H556.448V903.562H463.229V871.417M551.09 871.417H538.194M463.229 871.417H467.515V852.131H472.872V857.488M463.229 871.417H472.872M472.872 871.417V857.488M472.872 871.417H538.194M472.872 857.488H543.59V871.417H538.194" stroke="black" stroke-width="3" stroke-linecap="round"/>
<path d="M380.333 549.216V510.039C402.253 496.98 454.769 479.257 489.468 512.837V552.014" stroke="black" stroke-width="3" stroke-linecap="round"/>
<path d="M538.439 569.503V586.992H497.863M538.439 569.503V552.013H328.563V569.503M538.439 569.503H556.628L549.633 584.194L559.427 599.585H497.863V586.992M497.863 586.992H489.468M328.563 569.503V586.992H370.539M328.563 569.503H310.374L318.769 584.194L307.576 599.585H370.539V586.992M370.539 586.992H380.333M380.333 586.992C381.266 607.047 392.925 648.556 432.102 654.153C481.073 661.149 493.666 589.791 489.468 586.992M380.333 586.992H489.468" stroke="black" stroke-width="3" stroke-linecap="round"/>
</g>
</svg>
